<svg viewBox="0 0 64 64" xmlns="http://www.w3.org/2000/svg">
  <!-- Background gradient -->
  <defs>
    <linearGradient id="bgGradient" x1="0%" y1="0%" x2="100%" y2="100%">
      <stop offset="0%" stop-color="#4c1d95" />
      <stop offset="100%" stop-color="#1e1b4b" />
    </linearGradient>
    <radialGradient id="glowGradient" cx="50%" cy="50%" r="50%" fx="50%" fy="50%">
      <stop offset="0%" stop-color="#8b5cf6" stop-opacity="0.6" />
      <stop offset="100%" stop-color="#8b5cf6" stop-opacity="0" />
    </radialGradient>
    <filter id="glow" x="-50%" y="-50%" width="200%" height="200%">
      <feGaussianBlur stdDeviation="2" result="blur" />
      <feComposite in="SourceGraphic" in2="blur" operator="over" />
    </filter>
  </defs>

  <!-- Base circle -->
  <circle cx="32" cy="32" r="30" fill="url(#bgGradient)" />
  
  <!-- Glow effect -->
  <circle cx="32" cy="32" r="32" fill="url(#glowGradient)" />
  
  <!-- Neural hexagon structure -->
  <!-- Outer hexagon -->
  <polygon 
    points="32,5 54,15 54,45 32,55 10,45 10,15" 
    fill="#4c1d95" 
    stroke="#8b5cf6" 
    stroke-width="1"
    opacity="0.8"
  />
  
  <!-- Inner hexagon -->
  <polygon 
    points="32,15 44,22 44,38 32,45 20,38 20,22" 
    fill="#312e81" 
    stroke="#a78bfa" 
    stroke-width="1"
    opacity="0.9"
  />
  
  <!-- Connection lines -->
  <line x1="32" y1="5" x2="32" y2="15" stroke="#a78bfa" stroke-width="0.5" stroke-dasharray="1,1" />
  <line x1="54" y1="15" x2="44" y2="22" stroke="#a78bfa" stroke-width="0.5" stroke-dasharray="1,1" />
  <line x1="54" y1="45" x2="44" y2="38" stroke="#a78bfa" stroke-width="0.5" stroke-dasharray="1,1" />
  <line x1="32" y1="55" x2="32" y2="45" stroke="#a78bfa" stroke-width="0.5" stroke-dasharray="1,1" />
  <line x1="10" y1="45" x2="20" y2="38" stroke="#a78bfa" stroke-width="0.5" stroke-dasharray="1,1" />
  <line x1="10" y1="15" x2="20" y2="22" stroke="#a78bfa" stroke-width="0.5" stroke-dasharray="1,1" />
  
  <!-- Neural nodes -->
  <circle cx="32" cy="5" r="1.5" fill="#c4b5fd" filter="url(#glow)" />
  <circle cx="54" cy="15" r="1.5" fill="#c4b5fd" filter="url(#glow)" />
  <circle cx="54" cy="45" r="1.5" fill="#c4b5fd" filter="url(#glow)" />
  <circle cx="32" cy="55" r="1.5" fill="#c4b5fd" filter="url(#glow)" />
  <circle cx="10" cy="45" r="1.5" fill="#c4b5fd" filter="url(#glow)" />
  <circle cx="10" cy="15" r="1.5" fill="#c4b5fd" filter="url(#glow)" />
  
  <circle cx="32" cy="15" r="1.2" fill="#c4b5fd" filter="url(#glow)" />
  <circle cx="44" cy="22" r="1.2" fill="#c4b5fd" filter="url(#glow)" />
  <circle cx="44" cy="38" r="1.2" fill="#c4b5fd" filter="url(#glow)" />
  <circle cx="32" cy="45" r="1.2" fill="#c4b5fd" filter="url(#glow)" />
  <circle cx="20" cy="38" r="1.2" fill="#c4b5fd" filter="url(#glow)" />
  <circle cx="20" cy="22" r="1.2" fill="#c4b5fd" filter="url(#glow)" />
  
  <!-- Central neural core -->
  <circle cx="32" cy="30" r="6" fill="#4c1d95" />
  <circle cx="32" cy="30" r="4" fill="#7c3aed" opacity="0.8" />
  
  <!-- Neural pathways -->
  <path d="M32,27 C34,28 36,27 37.5,30 C39,33 36,35 37.5,37 C36,39 34,40 32,37.5" 
    fill="none" 
    stroke="#93c5fd" 
    stroke-width="0.5" 
    stroke-dasharray="1,1" />
    
  <path d="M32,27 C30,28 28,27 26.5,30 C25,33 28,35 26.5,37 C28,39 30,40 32,37.5" 
    fill="none" 
    stroke="#93c5fd" 
    stroke-width="0.5" 
    stroke-dasharray="1,1" />
  
  <!-- Energy particles -->
  <circle cx="36" cy="22" r="0.8" fill="white" opacity="0.8" />
  <circle cx="28" cy="38" r="0.8" fill="white" opacity="0.7" />
  <circle cx="44" cy="30" r="0.8" fill="white" opacity="0.9" />
  <circle cx="20" cy="30" r="0.8" fill="white" opacity="0.6" />
  <circle cx="38" cy="45" r="0.8" fill="white" opacity="0.5" />
  
  <!-- Orbital ring -->
  <circle cx="32" cy="30" r="15" fill="none" stroke="#a78bfa" stroke-width="0.5" stroke-dasharray="1,2" opacity="0.5" />
</svg>